<mxfile host="app.diagrams.net" modified="2023-04-21T23:49:05.661Z" agent="Mozilla/5.0 (Windows NT 10.0; Win64; x64) AppleWebKit/537.36 (KHTML, like Gecko) Chrome/112.0.0.0 Safari/537.36" etag="sf8kWW3MqNDME6efjMSx" version="21.2.1" type="google">
  <diagram name="Page-1" id="V_r4Xg3WpU-lNRWwmF45">
    <mxGraphModel grid="1" page="1" gridSize="10" guides="1" tooltips="1" connect="1" arrows="1" fold="1" pageScale="1" pageWidth="291" pageHeight="413" math="0" shadow="0">
      <root>
        <mxCell id="0" />
        <mxCell id="1" parent="0" />
        <mxCell id="gcPwVNpe9fE2ie1yvJzp-1" value="&lt;font style=&quot;font-size: 22px;&quot;&gt;&lt;b&gt;Empresa Qatar2022 - MER&lt;/b&gt;&lt;/font&gt;" style="text;whiteSpace=wrap;html=1;" vertex="1" parent="1">
          <mxGeometry x="290" width="280" height="40" as="geometry" />
        </mxCell>
        <mxCell id="gcPwVNpe9fE2ie1yvJzp-24" style="edgeStyle=orthogonalEdgeStyle;rounded=0;orthogonalLoop=1;jettySize=auto;html=1;exitX=1;exitY=0.5;exitDx=0;exitDy=0;entryX=0;entryY=0.5;entryDx=0;entryDy=0;endArrow=none;endFill=0;" edge="1" parent="1" source="gcPwVNpe9fE2ie1yvJzp-3" target="gcPwVNpe9fE2ie1yvJzp-23">
          <mxGeometry relative="1" as="geometry" />
        </mxCell>
        <mxCell id="gcPwVNpe9fE2ie1yvJzp-3" value="EMPLEADO" style="whiteSpace=wrap;html=1;align=center;" vertex="1" parent="1">
          <mxGeometry x="265" y="220" width="100" height="40" as="geometry" />
        </mxCell>
        <mxCell id="gcPwVNpe9fE2ie1yvJzp-4" value="DNI" style="ellipse;whiteSpace=wrap;html=1;align=center;fontStyle=5;" vertex="1" parent="1">
          <mxGeometry x="375" y="130" width="50" height="40" as="geometry" />
        </mxCell>
        <mxCell id="gcPwVNpe9fE2ie1yvJzp-5" value="Nombre" style="ellipse;whiteSpace=wrap;html=1;align=center;" vertex="1" parent="1">
          <mxGeometry x="315" y="90" width="60" height="40" as="geometry" />
        </mxCell>
        <mxCell id="gcPwVNpe9fE2ie1yvJzp-6" value="Apellido" style="ellipse;whiteSpace=wrap;html=1;align=center;" vertex="1" parent="1">
          <mxGeometry x="255" y="120" width="70" height="40" as="geometry" />
        </mxCell>
        <mxCell id="gcPwVNpe9fE2ie1yvJzp-8" value="" style="endArrow=none;html=1;rounded=0;entryX=0.5;entryY=1;entryDx=0;entryDy=0;exitX=0.75;exitY=0;exitDx=0;exitDy=0;" edge="1" parent="1" source="gcPwVNpe9fE2ie1yvJzp-3" target="gcPwVNpe9fE2ie1yvJzp-4">
          <mxGeometry relative="1" as="geometry">
            <mxPoint x="225" y="420" as="sourcePoint" />
            <mxPoint x="385" y="420" as="targetPoint" />
          </mxGeometry>
        </mxCell>
        <mxCell id="gcPwVNpe9fE2ie1yvJzp-9" value="" style="endArrow=none;html=1;rounded=0;entryX=0.5;entryY=1;entryDx=0;entryDy=0;exitX=0.75;exitY=0;exitDx=0;exitDy=0;" edge="1" parent="1" source="gcPwVNpe9fE2ie1yvJzp-3" target="gcPwVNpe9fE2ie1yvJzp-5">
          <mxGeometry relative="1" as="geometry">
            <mxPoint x="350" y="230" as="sourcePoint" />
            <mxPoint x="410" y="180" as="targetPoint" />
          </mxGeometry>
        </mxCell>
        <mxCell id="gcPwVNpe9fE2ie1yvJzp-10" value="" style="endArrow=none;html=1;rounded=0;exitX=0.5;exitY=0;exitDx=0;exitDy=0;entryX=0.5;entryY=1;entryDx=0;entryDy=0;" edge="1" parent="1" source="gcPwVNpe9fE2ie1yvJzp-3" target="gcPwVNpe9fE2ie1yvJzp-6">
          <mxGeometry relative="1" as="geometry">
            <mxPoint x="360" y="240" as="sourcePoint" />
            <mxPoint x="425" y="190" as="targetPoint" />
          </mxGeometry>
        </mxCell>
        <mxCell id="gcPwVNpe9fE2ie1yvJzp-12" value="DEPARTAMENTO" style="whiteSpace=wrap;html=1;align=center;" vertex="1" parent="1">
          <mxGeometry x="625" y="220" width="110" height="40" as="geometry" />
        </mxCell>
        <mxCell id="gcPwVNpe9fE2ie1yvJzp-15" value="Nombre" style="ellipse;whiteSpace=wrap;html=1;align=center;fontStyle=5" vertex="1" parent="1">
          <mxGeometry x="690" y="167" width="70" height="40" as="geometry" />
        </mxCell>
        <mxCell id="gcPwVNpe9fE2ie1yvJzp-17" value="Presupuesto" style="ellipse;whiteSpace=wrap;html=1;align=center;" vertex="1" parent="1">
          <mxGeometry x="590" y="150" width="90" height="40" as="geometry" />
        </mxCell>
        <mxCell id="gcPwVNpe9fE2ie1yvJzp-21" value="" style="endArrow=none;html=1;rounded=0;entryX=0.5;entryY=1;entryDx=0;entryDy=0;exitX=0.5;exitY=0;exitDx=0;exitDy=0;" edge="1" parent="1" source="gcPwVNpe9fE2ie1yvJzp-12" target="gcPwVNpe9fE2ie1yvJzp-15">
          <mxGeometry relative="1" as="geometry">
            <mxPoint x="635" y="250" as="sourcePoint" />
            <mxPoint x="795" y="250" as="targetPoint" />
          </mxGeometry>
        </mxCell>
        <mxCell id="gcPwVNpe9fE2ie1yvJzp-22" value="" style="endArrow=none;html=1;rounded=0;exitX=0.5;exitY=1;exitDx=0;exitDy=0;entryX=0.25;entryY=0;entryDx=0;entryDy=0;" edge="1" parent="1" source="gcPwVNpe9fE2ie1yvJzp-17" target="gcPwVNpe9fE2ie1yvJzp-12">
          <mxGeometry relative="1" as="geometry">
            <mxPoint x="635" y="250" as="sourcePoint" />
            <mxPoint x="795" y="250" as="targetPoint" />
          </mxGeometry>
        </mxCell>
        <mxCell id="gcPwVNpe9fE2ie1yvJzp-25" style="edgeStyle=orthogonalEdgeStyle;rounded=0;orthogonalLoop=1;jettySize=auto;html=1;exitX=1;exitY=0.5;exitDx=0;exitDy=0;entryX=0;entryY=0.5;entryDx=0;entryDy=0;endArrow=none;endFill=0;" edge="1" parent="1" source="gcPwVNpe9fE2ie1yvJzp-23" target="gcPwVNpe9fE2ie1yvJzp-12">
          <mxGeometry relative="1" as="geometry" />
        </mxCell>
        <mxCell id="gcPwVNpe9fE2ie1yvJzp-23" value="TRABAJA" style="shape=rhombus;perimeter=rhombusPerimeter;whiteSpace=wrap;html=1;align=center;" vertex="1" parent="1">
          <mxGeometry x="435" y="210" width="120" height="60" as="geometry" />
        </mxCell>
        <mxCell id="gcPwVNpe9fE2ie1yvJzp-26" value="(1,1)" style="text;strokeColor=none;fillColor=none;spacingLeft=4;spacingRight=4;overflow=hidden;rotatable=0;points=[[0,0.5],[1,0.5]];portConstraint=eastwest;fontSize=12;whiteSpace=wrap;html=1;" vertex="1" parent="1">
          <mxGeometry x="395" y="210" width="40" height="30" as="geometry" />
        </mxCell>
        <mxCell id="gcPwVNpe9fE2ie1yvJzp-27" value="(1,N)" style="text;strokeColor=none;fillColor=none;spacingLeft=4;spacingRight=4;overflow=hidden;rotatable=0;points=[[0,0.5],[1,0.5]];portConstraint=eastwest;fontSize=12;whiteSpace=wrap;html=1;" vertex="1" parent="1">
          <mxGeometry x="555" y="210" width="40" height="30" as="geometry" />
        </mxCell>
        <mxCell id="gcPwVNpe9fE2ie1yvJzp-28" value="&lt;font style=&quot;font-size: 22px;&quot;&gt;&lt;b&gt;Empresa Qatar2022 - MR&lt;/b&gt;&lt;/font&gt;" style="text;whiteSpace=wrap;html=1;" vertex="1" parent="1">
          <mxGeometry x="285" y="340" width="280" height="40" as="geometry" />
        </mxCell>
        <mxCell id="gcPwVNpe9fE2ie1yvJzp-29" value="Empleados" style="shape=table;startSize=30;container=1;collapsible=1;childLayout=tableLayout;fixedRows=1;rowLines=0;fontStyle=1;align=center;resizeLast=1;html=1;" vertex="1" parent="1">
          <mxGeometry x="350" y="440" width="150" height="180" as="geometry" />
        </mxCell>
        <mxCell id="gcPwVNpe9fE2ie1yvJzp-30" value="" style="shape=tableRow;horizontal=0;startSize=0;swimlaneHead=0;swimlaneBody=0;fillColor=none;collapsible=0;dropTarget=0;points=[[0,0.5],[1,0.5]];portConstraint=eastwest;top=0;left=0;right=0;bottom=1;" vertex="1" parent="gcPwVNpe9fE2ie1yvJzp-29">
          <mxGeometry y="30" width="150" height="30" as="geometry" />
        </mxCell>
        <mxCell id="gcPwVNpe9fE2ie1yvJzp-31" value="PK" style="shape=partialRectangle;connectable=0;fillColor=none;top=0;left=0;bottom=0;right=0;fontStyle=1;overflow=hidden;whiteSpace=wrap;html=1;" vertex="1" parent="gcPwVNpe9fE2ie1yvJzp-30">
          <mxGeometry width="30" height="30" as="geometry">
            <mxRectangle width="30" height="30" as="alternateBounds" />
          </mxGeometry>
        </mxCell>
        <mxCell id="gcPwVNpe9fE2ie1yvJzp-32" value="DNI" style="shape=partialRectangle;connectable=0;fillColor=none;top=0;left=0;bottom=0;right=0;align=left;spacingLeft=6;fontStyle=5;overflow=hidden;whiteSpace=wrap;html=1;" vertex="1" parent="gcPwVNpe9fE2ie1yvJzp-30">
          <mxGeometry x="30" width="120" height="30" as="geometry">
            <mxRectangle width="120" height="30" as="alternateBounds" />
          </mxGeometry>
        </mxCell>
        <mxCell id="gcPwVNpe9fE2ie1yvJzp-33" value="" style="shape=tableRow;horizontal=0;startSize=0;swimlaneHead=0;swimlaneBody=0;fillColor=none;collapsible=0;dropTarget=0;points=[[0,0.5],[1,0.5]];portConstraint=eastwest;top=0;left=0;right=0;bottom=0;" vertex="1" parent="gcPwVNpe9fE2ie1yvJzp-29">
          <mxGeometry y="60" width="150" height="30" as="geometry" />
        </mxCell>
        <mxCell id="gcPwVNpe9fE2ie1yvJzp-34" value="" style="shape=partialRectangle;connectable=0;fillColor=none;top=0;left=0;bottom=0;right=0;editable=1;overflow=hidden;whiteSpace=wrap;html=1;" vertex="1" parent="gcPwVNpe9fE2ie1yvJzp-33">
          <mxGeometry width="30" height="30" as="geometry">
            <mxRectangle width="30" height="30" as="alternateBounds" />
          </mxGeometry>
        </mxCell>
        <mxCell id="gcPwVNpe9fE2ie1yvJzp-35" value="Nombre" style="shape=partialRectangle;connectable=0;fillColor=none;top=0;left=0;bottom=0;right=0;align=left;spacingLeft=6;overflow=hidden;whiteSpace=wrap;html=1;" vertex="1" parent="gcPwVNpe9fE2ie1yvJzp-33">
          <mxGeometry x="30" width="120" height="30" as="geometry">
            <mxRectangle width="120" height="30" as="alternateBounds" />
          </mxGeometry>
        </mxCell>
        <mxCell id="gcPwVNpe9fE2ie1yvJzp-36" value="" style="shape=tableRow;horizontal=0;startSize=0;swimlaneHead=0;swimlaneBody=0;fillColor=none;collapsible=0;dropTarget=0;points=[[0,0.5],[1,0.5]];portConstraint=eastwest;top=0;left=0;right=0;bottom=0;" vertex="1" parent="gcPwVNpe9fE2ie1yvJzp-29">
          <mxGeometry y="90" width="150" height="30" as="geometry" />
        </mxCell>
        <mxCell id="gcPwVNpe9fE2ie1yvJzp-37" value="" style="shape=partialRectangle;connectable=0;fillColor=none;top=0;left=0;bottom=0;right=0;editable=1;overflow=hidden;whiteSpace=wrap;html=1;" vertex="1" parent="gcPwVNpe9fE2ie1yvJzp-36">
          <mxGeometry width="30" height="30" as="geometry">
            <mxRectangle width="30" height="30" as="alternateBounds" />
          </mxGeometry>
        </mxCell>
        <mxCell id="gcPwVNpe9fE2ie1yvJzp-38" value="Apellido" style="shape=partialRectangle;connectable=0;fillColor=none;top=0;left=0;bottom=0;right=0;align=left;spacingLeft=6;overflow=hidden;whiteSpace=wrap;html=1;" vertex="1" parent="gcPwVNpe9fE2ie1yvJzp-36">
          <mxGeometry x="30" width="120" height="30" as="geometry">
            <mxRectangle width="120" height="30" as="alternateBounds" />
          </mxGeometry>
        </mxCell>
        <mxCell id="gcPwVNpe9fE2ie1yvJzp-39" value="" style="shape=tableRow;horizontal=0;startSize=0;swimlaneHead=0;swimlaneBody=0;fillColor=none;collapsible=0;dropTarget=0;points=[[0,0.5],[1,0.5]];portConstraint=eastwest;top=0;left=0;right=0;bottom=0;" vertex="1" parent="gcPwVNpe9fE2ie1yvJzp-29">
          <mxGeometry y="120" width="150" height="30" as="geometry" />
        </mxCell>
        <mxCell id="gcPwVNpe9fE2ie1yvJzp-40" value="FK" style="shape=partialRectangle;connectable=0;fillColor=none;top=0;left=0;bottom=0;right=0;editable=1;overflow=hidden;whiteSpace=wrap;html=1;fontStyle=1" vertex="1" parent="gcPwVNpe9fE2ie1yvJzp-39">
          <mxGeometry width="30" height="30" as="geometry">
            <mxRectangle width="30" height="30" as="alternateBounds" />
          </mxGeometry>
        </mxCell>
        <mxCell id="gcPwVNpe9fE2ie1yvJzp-41" value="Pais_FK" style="shape=partialRectangle;connectable=0;fillColor=none;top=0;left=0;bottom=0;right=0;align=left;spacingLeft=6;overflow=hidden;whiteSpace=wrap;html=1;fontStyle=1" vertex="1" parent="gcPwVNpe9fE2ie1yvJzp-39">
          <mxGeometry x="30" width="120" height="30" as="geometry">
            <mxRectangle width="120" height="30" as="alternateBounds" />
          </mxGeometry>
        </mxCell>
        <mxCell id="gcPwVNpe9fE2ie1yvJzp-79" value="" style="shape=tableRow;horizontal=0;startSize=0;swimlaneHead=0;swimlaneBody=0;fillColor=none;collapsible=0;dropTarget=0;points=[[0,0.5],[1,0.5]];portConstraint=eastwest;top=0;left=0;right=0;bottom=0;" vertex="1" parent="gcPwVNpe9fE2ie1yvJzp-29">
          <mxGeometry y="150" width="150" height="30" as="geometry" />
        </mxCell>
        <mxCell id="gcPwVNpe9fE2ie1yvJzp-80" value="FK" style="shape=partialRectangle;connectable=0;fillColor=none;top=0;left=0;bottom=0;right=0;editable=1;overflow=hidden;whiteSpace=wrap;html=1;fontStyle=1" vertex="1" parent="gcPwVNpe9fE2ie1yvJzp-79">
          <mxGeometry width="30" height="30" as="geometry">
            <mxRectangle width="30" height="30" as="alternateBounds" />
          </mxGeometry>
        </mxCell>
        <mxCell id="gcPwVNpe9fE2ie1yvJzp-81" value="Departamento_FK&amp;nbsp;" style="shape=partialRectangle;connectable=0;fillColor=none;top=0;left=0;bottom=0;right=0;align=left;spacingLeft=6;overflow=hidden;whiteSpace=wrap;html=1;fontStyle=1" vertex="1" parent="gcPwVNpe9fE2ie1yvJzp-79">
          <mxGeometry x="30" width="120" height="30" as="geometry">
            <mxRectangle width="120" height="30" as="alternateBounds" />
          </mxGeometry>
        </mxCell>
        <mxCell id="gcPwVNpe9fE2ie1yvJzp-42" value="Departamentos" style="shape=table;startSize=30;container=1;collapsible=1;childLayout=tableLayout;fixedRows=1;rowLines=0;fontStyle=1;align=center;resizeLast=1;html=1;" vertex="1" parent="1">
          <mxGeometry x="660" y="440" width="130" height="90" as="geometry" />
        </mxCell>
        <mxCell id="gcPwVNpe9fE2ie1yvJzp-43" value="" style="shape=tableRow;horizontal=0;startSize=0;swimlaneHead=0;swimlaneBody=0;fillColor=none;collapsible=0;dropTarget=0;points=[[0,0.5],[1,0.5]];portConstraint=eastwest;top=0;left=0;right=0;bottom=1;" vertex="1" parent="gcPwVNpe9fE2ie1yvJzp-42">
          <mxGeometry y="30" width="130" height="30" as="geometry" />
        </mxCell>
        <mxCell id="gcPwVNpe9fE2ie1yvJzp-44" value="PK" style="shape=partialRectangle;connectable=0;fillColor=none;top=0;left=0;bottom=0;right=0;fontStyle=1;overflow=hidden;whiteSpace=wrap;html=1;" vertex="1" parent="gcPwVNpe9fE2ie1yvJzp-43">
          <mxGeometry width="30" height="30" as="geometry">
            <mxRectangle width="30" height="30" as="alternateBounds" />
          </mxGeometry>
        </mxCell>
        <mxCell id="gcPwVNpe9fE2ie1yvJzp-45" value="Nombre" style="shape=partialRectangle;connectable=0;fillColor=none;top=0;left=0;bottom=0;right=0;align=left;spacingLeft=6;fontStyle=5;overflow=hidden;whiteSpace=wrap;html=1;" vertex="1" parent="gcPwVNpe9fE2ie1yvJzp-43">
          <mxGeometry x="30" width="100" height="30" as="geometry">
            <mxRectangle width="100" height="30" as="alternateBounds" />
          </mxGeometry>
        </mxCell>
        <mxCell id="gcPwVNpe9fE2ie1yvJzp-49" value="" style="shape=tableRow;horizontal=0;startSize=0;swimlaneHead=0;swimlaneBody=0;fillColor=none;collapsible=0;dropTarget=0;points=[[0,0.5],[1,0.5]];portConstraint=eastwest;top=0;left=0;right=0;bottom=0;" vertex="1" parent="gcPwVNpe9fE2ie1yvJzp-42">
          <mxGeometry y="60" width="130" height="30" as="geometry" />
        </mxCell>
        <mxCell id="gcPwVNpe9fE2ie1yvJzp-50" value="" style="shape=partialRectangle;connectable=0;fillColor=none;top=0;left=0;bottom=0;right=0;editable=1;overflow=hidden;whiteSpace=wrap;html=1;" vertex="1" parent="gcPwVNpe9fE2ie1yvJzp-49">
          <mxGeometry width="30" height="30" as="geometry">
            <mxRectangle width="30" height="30" as="alternateBounds" />
          </mxGeometry>
        </mxCell>
        <mxCell id="gcPwVNpe9fE2ie1yvJzp-51" value="Presupuesto" style="shape=partialRectangle;connectable=0;fillColor=none;top=0;left=0;bottom=0;right=0;align=left;spacingLeft=6;overflow=hidden;whiteSpace=wrap;html=1;" vertex="1" parent="gcPwVNpe9fE2ie1yvJzp-49">
          <mxGeometry x="30" width="100" height="30" as="geometry">
            <mxRectangle width="100" height="30" as="alternateBounds" />
          </mxGeometry>
        </mxCell>
        <mxCell id="gcPwVNpe9fE2ie1yvJzp-56" style="edgeStyle=orthogonalEdgeStyle;rounded=0;orthogonalLoop=1;jettySize=auto;html=1;exitX=1;exitY=0.5;exitDx=0;exitDy=0;entryX=0;entryY=0.5;entryDx=0;entryDy=0;endArrow=none;endFill=0;" edge="1" parent="1" source="gcPwVNpe9fE2ie1yvJzp-74" target="gcPwVNpe9fE2ie1yvJzp-3">
          <mxGeometry relative="1" as="geometry" />
        </mxCell>
        <mxCell id="gcPwVNpe9fE2ie1yvJzp-55" value="NACIO" style="shape=rhombus;perimeter=rhombusPerimeter;whiteSpace=wrap;html=1;align=center;" vertex="1" parent="1">
          <mxGeometry x="50" y="210" width="120" height="60" as="geometry" />
        </mxCell>
        <mxCell id="gcPwVNpe9fE2ie1yvJzp-58" style="edgeStyle=orthogonalEdgeStyle;rounded=0;orthogonalLoop=1;jettySize=auto;html=1;exitX=0.5;exitY=1;exitDx=0;exitDy=0;entryX=0.5;entryY=0;entryDx=0;entryDy=0;endArrow=none;endFill=0;" edge="1" parent="1" source="gcPwVNpe9fE2ie1yvJzp-76" target="gcPwVNpe9fE2ie1yvJzp-55">
          <mxGeometry relative="1" as="geometry" />
        </mxCell>
        <mxCell id="gcPwVNpe9fE2ie1yvJzp-57" value="PAIS" style="whiteSpace=wrap;html=1;align=center;" vertex="1" parent="1">
          <mxGeometry x="60" y="120" width="100" height="40" as="geometry" />
        </mxCell>
        <mxCell id="gcPwVNpe9fE2ie1yvJzp-60" style="edgeStyle=orthogonalEdgeStyle;rounded=0;orthogonalLoop=1;jettySize=auto;html=1;exitX=0.5;exitY=1;exitDx=0;exitDy=0;entryX=0.5;entryY=0;entryDx=0;entryDy=0;endArrow=none;endFill=0;" edge="1" parent="1" source="gcPwVNpe9fE2ie1yvJzp-59" target="gcPwVNpe9fE2ie1yvJzp-57">
          <mxGeometry relative="1" as="geometry">
            <mxPoint x="110" y="90" as="sourcePoint" />
          </mxGeometry>
        </mxCell>
        <mxCell id="gcPwVNpe9fE2ie1yvJzp-59" value="Nombre" style="ellipse;whiteSpace=wrap;html=1;align=center;fontStyle=5" vertex="1" parent="1">
          <mxGeometry x="75" y="60" width="70" height="40" as="geometry" />
        </mxCell>
        <mxCell id="gcPwVNpe9fE2ie1yvJzp-61" value="Paises" style="shape=table;startSize=30;container=1;collapsible=1;childLayout=tableLayout;fixedRows=1;rowLines=0;fontStyle=1;align=center;resizeLast=1;html=1;" vertex="1" parent="1">
          <mxGeometry x="120" y="480" width="100" height="60" as="geometry" />
        </mxCell>
        <mxCell id="gcPwVNpe9fE2ie1yvJzp-62" value="" style="shape=tableRow;horizontal=0;startSize=0;swimlaneHead=0;swimlaneBody=0;fillColor=none;collapsible=0;dropTarget=0;points=[[0,0.5],[1,0.5]];portConstraint=eastwest;top=0;left=0;right=0;bottom=1;" vertex="1" parent="gcPwVNpe9fE2ie1yvJzp-61">
          <mxGeometry y="30" width="100" height="30" as="geometry" />
        </mxCell>
        <mxCell id="gcPwVNpe9fE2ie1yvJzp-63" value="PK" style="shape=partialRectangle;connectable=0;fillColor=none;top=0;left=0;bottom=0;right=0;fontStyle=1;overflow=hidden;whiteSpace=wrap;html=1;" vertex="1" parent="gcPwVNpe9fE2ie1yvJzp-62">
          <mxGeometry width="30" height="30" as="geometry">
            <mxRectangle width="30" height="30" as="alternateBounds" />
          </mxGeometry>
        </mxCell>
        <mxCell id="gcPwVNpe9fE2ie1yvJzp-64" value="Nombre" style="shape=partialRectangle;connectable=0;fillColor=none;top=0;left=0;bottom=0;right=0;align=left;spacingLeft=6;fontStyle=5;overflow=hidden;whiteSpace=wrap;html=1;" vertex="1" parent="gcPwVNpe9fE2ie1yvJzp-62">
          <mxGeometry x="30" width="70" height="30" as="geometry">
            <mxRectangle width="70" height="30" as="alternateBounds" />
          </mxGeometry>
        </mxCell>
        <mxCell id="gcPwVNpe9fE2ie1yvJzp-75" value="" style="edgeStyle=orthogonalEdgeStyle;rounded=0;orthogonalLoop=1;jettySize=auto;html=1;exitX=1;exitY=0.5;exitDx=0;exitDy=0;entryX=0;entryY=0.5;entryDx=0;entryDy=0;endArrow=none;endFill=0;" edge="1" parent="1" source="gcPwVNpe9fE2ie1yvJzp-55" target="gcPwVNpe9fE2ie1yvJzp-74">
          <mxGeometry relative="1" as="geometry">
            <mxPoint x="170" y="240" as="sourcePoint" />
            <mxPoint x="265" y="240" as="targetPoint" />
          </mxGeometry>
        </mxCell>
        <mxCell id="gcPwVNpe9fE2ie1yvJzp-74" value="(1,1)" style="text;strokeColor=none;fillColor=none;spacingLeft=4;spacingRight=4;overflow=hidden;rotatable=0;points=[[0,0.5],[1,0.5]];portConstraint=eastwest;fontSize=12;whiteSpace=wrap;html=1;" vertex="1" parent="1">
          <mxGeometry x="180" y="225" width="40" height="30" as="geometry" />
        </mxCell>
        <mxCell id="gcPwVNpe9fE2ie1yvJzp-77" value="" style="edgeStyle=orthogonalEdgeStyle;rounded=0;orthogonalLoop=1;jettySize=auto;html=1;exitX=0.5;exitY=1;exitDx=0;exitDy=0;entryX=0.5;entryY=0;entryDx=0;entryDy=0;endArrow=none;endFill=0;" edge="1" parent="1" source="gcPwVNpe9fE2ie1yvJzp-57" target="gcPwVNpe9fE2ie1yvJzp-76">
          <mxGeometry relative="1" as="geometry">
            <mxPoint x="110" y="160" as="sourcePoint" />
            <mxPoint x="110" y="210" as="targetPoint" />
          </mxGeometry>
        </mxCell>
        <mxCell id="gcPwVNpe9fE2ie1yvJzp-76" value="(0,N)" style="text;strokeColor=none;fillColor=none;spacingLeft=4;spacingRight=4;overflow=hidden;rotatable=0;points=[[0,0.5],[1,0.5]];portConstraint=eastwest;fontSize=12;whiteSpace=wrap;html=1;" vertex="1" parent="1">
          <mxGeometry x="90" y="180" width="40" height="30" as="geometry" />
        </mxCell>
        <mxCell id="gcPwVNpe9fE2ie1yvJzp-78" style="edgeStyle=orthogonalEdgeStyle;rounded=0;orthogonalLoop=1;jettySize=auto;html=1;exitX=1;exitY=0.5;exitDx=0;exitDy=0;entryX=0;entryY=0.5;entryDx=0;entryDy=0;endArrow=none;endFill=0;" edge="1" parent="1" source="gcPwVNpe9fE2ie1yvJzp-62" target="gcPwVNpe9fE2ie1yvJzp-39">
          <mxGeometry relative="1" as="geometry" />
        </mxCell>
        <mxCell id="gcPwVNpe9fE2ie1yvJzp-82" style="edgeStyle=orthogonalEdgeStyle;rounded=0;orthogonalLoop=1;jettySize=auto;html=1;exitX=0;exitY=0.5;exitDx=0;exitDy=0;entryX=1;entryY=0.5;entryDx=0;entryDy=0;endArrow=none;endFill=0;" edge="1" parent="1" source="gcPwVNpe9fE2ie1yvJzp-43" target="gcPwVNpe9fE2ie1yvJzp-79">
          <mxGeometry relative="1" as="geometry" />
        </mxCell>
      </root>
    </mxGraphModel>
  </diagram>
</mxfile>
